<?xml version="1.0" encoding="UTF-8"?>
<svg id="_レイヤー_3" xmlns="http://www.w3.org/2000/svg" version="1.1" viewBox="0 0 61.6 53.2">
  <!-- Generator: Adobe Illustrator 29.5.1, SVG Export Plug-In . SVG Version: 2.1.0 Build 141)  -->
  <defs>
    <style>
      .st0 {
        fill: #2a2a2a;
      }

      .st1 {
        fill: #fff;
      }
    </style>
  </defs>
  <g id="_グループ_26">
    <path id="_パス_4" class="st1" d="M60.1,7.5v28.5c0,3.2-2.5,5.9-5.7,6h-17.6c-.4,0-.8.2-.9.6l-4.2,8.8c-.1.3-.4.4-.7.2-.1,0-.2,0-.2-.2l-4.2-8.8c-.2-.4-.5-.6-.9-.6H7.2c-3.2,0-5.8-2.8-5.7-6V7.5C1.5,4.3,4,1.6,7.2,1.5h47.2c3.2,0,5.8,2.8,5.7,6h0Z"/>
    <path id="_パス_5" class="st0" d="M31.2,53.2c-.8,0-1.4-.5-1.8-1.1l-4.1-8.5H7.2c-4.1,0-7.3-3.5-7.2-7.6V7.6C0,3.5,3.1.1,7.2,0h47.2c4.1.1,7.3,3.5,7.2,7.6v28.4c0,4.1-3.1,7.4-7.2,7.6h-17.3l-4.1,8.5c-.3.7-1,1.1-1.8,1.1ZM30.3,50.6h0ZM32.1,50.6h0ZM7.2,3.1c-2.4,0-4.3,2.1-4.2,4.5v28.4c0,2.4,1.8,4.4,4.2,4.5h18.4c1,0,1.8.6,2.2,1.5l3.4,7,3.4-7c.4-.9,1.3-1.4,2.3-1.5h17.6c2.4,0,4.3-2.1,4.2-4.5V7.6c0-2.4-1.8-4.4-4.2-4.5H7.2Z"/>
  </g>
  <g id="_グループ_28">
    <path id="_パス_6" class="st0" d="M49.1,23.9H12.4c-.8,0-1.5-.7-1.5-1.5s.7-1.5,1.5-1.5h36.7c.8,0,1.5.7,1.5,1.5s-.7,1.5-1.5,1.5h0Z"/>
    <g id="_グループ_27">
      <path id="_パス_7" class="st0" d="M30.2,16.9H12.4c-.8,0-1.5-.7-1.5-1.5s.7-1.5,1.5-1.5h17.7c.8,0,1.5.7,1.5,1.5s-.7,1.5-1.5,1.5h.1Z"/>
      <path id="_パス_8" class="st0" d="M41,30.8H12.4c-.8,0-1.5-.7-1.5-1.5s.7-1.5,1.5-1.5h28.6c.8,0,1.5.7,1.5,1.5s-.7,1.5-1.5,1.5h0Z"/>
    </g>
  </g>
</svg>