<?xml version="1.0" encoding="UTF-8"?>
<svg id="_レイヤー_2" data-name="レイヤー 2" xmlns="http://www.w3.org/2000/svg" viewBox="0 0 459.99 464.48">
  <defs>
    <style>
      .cls-1 {
        fill: #231815;
      }

      .cls-2 {
        fill: #fff;
      }
    </style>
  </defs>
  <g id="_レイヤー_1-2" data-name="レイヤー 1">
    <g>
      <path class="cls-2" d="M453.94,252.24c-10.33,107.54-96.65,192.79-204.3,201.91-48.83,4.13-94.73-7.32-133.31-29.95-1.54-.91-3.42-1.04-5.07-.35l-83.63,35.33c-2.75,1.16-5.66-1.29-4.97-4.2l22.21-93.84c.37-1.55.05-3.17-.84-4.48C16.72,316.66,2,267.38,5.52,214.54,12.48,110.38,104.2,15.83,208.13,6.02c141.58-13.37,259.41,104.6,245.81,246.22Z"/>
      <path class="cls-1" d="M26.2,464.48c-2,0-3.98-.7-5.57-2.05-2.5-2.12-3.59-5.41-2.83-8.6l22.21-93.83c.04-.17,0-.35-.11-.51C10.66,316.65-2.95,266.41.53,214.21c3.44-51.57,27-102.28,66.34-142.79C106.23,30.89,156.23,5.9,207.66,1.04c68.98-6.51,136.46,17.7,185.11,66.44,48.66,48.74,72.77,116.25,66.14,185.24l-4.98-.48,4.98.48c-5.11,53.17-28.94,103.22-67.12,140.94-38.17,37.71-88.5,60.96-141.74,65.47-48.06,4.07-95.18-6.52-136.26-30.62-.19-.11-.41-.13-.59-.05l-83.63,35.33c-1.09.46-2.24.69-3.38.69ZM229.74,10c-7.02,0-14.08.33-21.15,1C107.97,20.5,17.26,113.86,10.51,214.87c-3.33,49.95,9.68,98,37.65,138.97,1.69,2.47,2.27,5.56,1.58,8.45l-21.59,91.25,81.18-34.3c3.08-1.3,6.65-1.06,9.54.64,39.29,23.05,84.37,33.17,130.35,29.28,105.61-8.94,189.62-91.96,199.74-197.41h0c6.34-66-16.72-130.6-63.26-177.21C344.14,32.93,288.23,10,229.74,10Z"/>
    </g>
    <g>
      <circle cx="137.51" cy="231.99" r="15.5"/>
      <circle cx="230.51" cy="231.99" r="15.5"/>
      <circle cx="323.51" cy="231.99" r="15.5"/>
    </g>
  </g>
</svg>