<?xml version="1.0" encoding="UTF-8"?>
<svg id="_レイヤー_2" data-name="レイヤー 2" xmlns="http://www.w3.org/2000/svg" viewBox="0 0 523 428.77">
  <defs>
    <style>
      .cls-1 {
        fill: #fff;
      }
    </style>
  </defs>
  <g id="_レイヤー_3" data-name="レイヤー 3">
    <g>
      <path class="cls-1" d="M510.5,60.98v229.04c0,26.77-21.71,48.48-48.48,48.48h-149.24c-3.37,0-6.46,1.89-7.99,4.9l-35.82,70.5c-1.6,3.16-6.12,3.16-7.72,0l-35.82-70.5c-1.53-3.01-4.61-4.9-7.99-4.9H60.98c-26.77,0-48.48-21.71-48.48-48.48V60.98c0-26.77,21.71-48.48,48.48-48.48h401.04c26.77,0,48.48,21.71,48.48,48.48Z"/>
      <path d="M265.11,428.77c-6.38,0-12.13-3.53-15.01-9.22l-34.83-68.55H60.98c-33.62,0-60.98-27.36-60.98-60.98V60.98C0,27.36,27.36,0,60.98,0h401.04c33.62,0,60.98,27.36,60.98,60.98v229.04c0,33.62-27.36,60.98-60.98,60.98h-147.07l-34.84,68.56c-2.87,5.67-8.62,9.21-15,9.21ZM257.83,408.24v.02s0-.02,0-.02ZM272.39,408.22v.02s0-.01,0-.02ZM60.98,25c-19.84,0-35.98,16.14-35.98,35.98v229.04c0,19.84,16.14,35.98,35.98,35.98h156.46c8.12,0,15.45,4.5,19.13,11.74l28.54,56.16,28.54-56.16c3.68-7.24,11.01-11.74,19.13-11.74h149.24c19.84,0,35.98-16.14,35.98-35.98V60.98c0-19.84-16.14-35.98-35.98-35.98H60.98Z"/>
    </g>
    <g>
      <path d="M417.54,190.25H105.46c-6.9,0-12.5-5.6-12.5-12.5s5.6-12.5,12.5-12.5h312.08c6.9,0,12.5,5.6,12.5,12.5s-5.6,12.5-12.5,12.5Z"/>
      <g>
        <path d="M417.54,122.75H105.46c-6.9,0-12.5-5.6-12.5-12.5s5.6-12.5,12.5-12.5h312.08c6.9,0,12.5,5.6,12.5,12.5s-5.6,12.5-12.5,12.5Z"/>
        <path d="M417.54,257.75H105.46c-6.9,0-12.5-5.6-12.5-12.5s5.6-12.5,12.5-12.5h312.08c6.9,0,12.5,5.6,12.5,12.5s-5.6,12.5-12.5,12.5Z"/>
      </g>
    </g>
  </g>
</svg>