<svg xmlns="http://www.w3.org/2000/svg" width="25.2" height="20.913" viewBox="0 0 25.2 20.913">
  <path id="thumb_up_24dp_000_FILL0_wght400_GRAD0_opsz24" d="M99.2-899.087H86V-912.68L94.4-920l1.5,1.307a1.356,1.356,0,0,1,.345.5,1.52,1.52,0,0,1,.135.6v.366l-1.32,4.549h7.74a2.478,2.478,0,0,1,1.68.627,1.892,1.892,0,0,1,.72,1.464v2.091a1.426,1.426,0,0,1-.06.392q-.06.209-.12.392l-3.6,7.372a2.232,2.232,0,0,1-.9.889A2.59,2.59,0,0,1,99.2-899.087Zm-10.8-2.091H99.2l3.6-7.32v-2.091H92l1.62-5.751-5.22,4.549Zm0-10.613v0ZM86-912.68v2.091H82.4v9.411H86v2.091H80V-912.68Z" transform="translate(-80 920)" fill="#2a2a2a"/>
</svg>
