<svg id="レイヤー_3" data-name="レイヤー 3" xmlns="http://www.w3.org/2000/svg" width="61.563" height="53.188" viewBox="0 0 61.563 53.188">
  <g id="グループ_26" data-name="グループ 26">
    <path id="パス_4" data-name="パス 4" d="M71.12,18.533v28.5a5.877,5.877,0,0,1-5.707,6.033H47.846a1.05,1.05,0,0,0-.941.61l-4.216,8.773a.5.5,0,0,1-.909,0l-4.216-8.773a1.049,1.049,0,0,0-.941-.61H18.207A5.877,5.877,0,0,1,12.5,47.035v-28.5A5.877,5.877,0,0,1,18.207,12.5H65.414a5.877,5.877,0,0,1,5.707,6.033Z" transform="translate(-11.029 -11.029)" fill="#2a2a2a"/>
    <path id="パス_5" data-name="パス 5" d="M31.206,53.188a1.961,1.961,0,0,1-1.767-1.144l-4.1-8.5H7.178A7.388,7.388,0,0,1,0,35.977V7.564A7.388,7.388,0,0,1,7.178,0H54.385a7.388,7.388,0,0,1,7.178,7.564V35.977a7.388,7.388,0,0,1-7.178,7.564H37.073l-4.1,8.5A1.962,1.962,0,0,1,31.206,53.188Zm-.857-2.547v0Zm1.714,0v0ZM7.178,3.1A4.359,4.359,0,0,0,2.943,7.564V35.977A4.359,4.359,0,0,0,7.178,40.44H25.6A2.5,2.5,0,0,1,27.847,41.9l3.359,6.967L34.566,41.9a2.5,2.5,0,0,1,2.252-1.456H54.385a4.359,4.359,0,0,0,4.235-4.463V7.564A4.359,4.359,0,0,0,54.385,3.1Z" fill="#2a2a2a"/>
  </g>
  <g id="グループ_28" data-name="グループ 28" transform="translate(10.942 14.495)">
    <path id="パス_6" data-name="パス 6" d="M131.167,168.193H94.431a1.471,1.471,0,1,1,0-2.943h36.735a1.471,1.471,0,0,1,0,2.943Z" transform="translate(-92.96 -158.833)" fill="#fbfbfb"/>
    <g id="グループ_27" data-name="グループ 27" transform="translate(0 -2.529)">
      <path id="パス_7" data-name="パス 7" d="M112.179,100.693H94.431a1.471,1.471,0,1,1,0-2.943h17.747a1.471,1.471,0,0,1,0,2.943Z" transform="translate(-92.96 -95.75)" fill="#fbfbfb"/>
      <path id="パス_8" data-name="パス 8" d="M123.016,235.693H94.431a1.471,1.471,0,0,1,0-2.943h28.584a1.471,1.471,0,0,1,0,2.943Z" transform="translate(-92.96 -216.859)" fill="#fbfbfb"/>
    </g>
  </g>
</svg>
