<?xml version="1.0" encoding="UTF-8"?>
<svg id="_レイヤー_2" data-name="レイヤー 2" xmlns="http://www.w3.org/2000/svg" xmlns:xlink="http://www.w3.org/1999/xlink" viewBox="0 0 279.91 487.06">
  <defs>
    <style>
      .cls-1 {
        fill: #fff;
      }

      .cls-2 {
        fill: url(#_名称未設定グラデーション_31);
      }

      .cls-3 {
        fill: url(#_名称未設定グラデーション_26);
        opacity: .2;
      }
    </style>
    <radialGradient id="_名称未設定グラデーション_26" data-name="名称未設定グラデーション 26" cx="142.99" cy="437.1" fx="142.99" fy="437.1" r="73.39" gradientTransform="translate(0 219.06) scale(1 .5)" gradientUnits="userSpaceOnUse">
      <stop offset="0" stop-color="#e860a7"/>
      <stop offset="0" stop-color="#b6628e"/>
      <stop offset="0" stop-color="#666"/>
      <stop offset=".44" stop-color="#666" stop-opacity=".58"/>
      <stop offset="1" stop-color="#666" stop-opacity="0"/>
    </radialGradient>
    <linearGradient id="_名称未設定グラデーション_31" data-name="名称未設定グラデーション 31" x1="139.95" y1="0" x2="139.95" y2="436.09" gradientUnits="userSpaceOnUse">
      <stop offset="0" stop-color="#e860a7"/>
      <stop offset=".34" stop-color="#ea5e82"/>
      <stop offset=".98" stop-color="#ef6262"/>
    </linearGradient>
  </defs>
  <g id="_レイヤー_1-2" data-name="レイヤー 1">
    <g>
      <ellipse class="cls-3" cx="139.95" cy="436.09" rx="90.42" ry="50.97"/>
      <path class="cls-2" d="M279.91,139.91c0,59.16-24.7,80.82-55.65,128.24-33.28,50.98-53.6,92.96-60.52,117.34-12.65,44.56-14.4,50.59-23.74,50.59-10.9,0-10-12.31-21.99-53.32-11.23-38.42-39.5-82.9-59.94-113.64C27.66,223.36,2.42,206.08.08,139.91-2.64,62.69,62.72,0,140,0s139.91,62.64,139.91,139.91Z"/>
      <circle class="cls-1" cx="139.95" cy="142.25" r="58.38"/>
    </g>
  </g>
</svg>